<svg width="89" height="88" viewBox="0 0 89 88" fill="none" xmlns="http://www.w3.org/2000/svg">
<g clip-path="url(#clip0_3206_6873)">
<path d="M66.499 1.46484H13.699C12.0855 1.46484 10.7656 2.7847 10.7656 4.39818V74.7982L22.499 86.5315H66.499C68.1124 86.5315 69.4323 85.2117 69.4323 83.5982V4.39818C69.4323 2.7847 68.1124 1.46484 66.499 1.46484Z" fill="#fff"/>
<path d="M19.5656 74.8008H10.7656L22.499 86.5341V77.7341C22.499 76.1206 21.1791 74.8008 19.5656 74.8008Z" fill="#fff"/>
<path d="M77.3511 70.9863L47.4313 41.0664L43.0312 45.4664L72.9511 75.3863C74.1249 76.56 76.1781 76.56 77.3511 75.3863C78.5249 74.2132 78.5249 72.16 77.3511 70.9863Z" fill="#fff"/>
<path d="M22.4609 43.9473L44.4473 21.9609L56.1663 33.6799L34.1799 55.6663L22.4609 43.9473Z" fill="#fff"/>
<path d="M61.5135 28.7466L49.4865 16.7196C48.3135 15.5466 46.5532 15.5466 45.3801 16.7196C44.7936 17.3062 44.5 18.0395 44.5 18.7728V21.9998L56.2333 33.7331H59.4603C61.073 33.7331 62.3936 32.4133 62.3936 30.7998C62.3936 30.0664 62.1 29.3331 61.5135 28.7466Z" fill="#fff"/>
<path d="M19.2693 44C17.6565 44 16.3359 45.3199 16.3359 46.9333C16.3359 47.6667 16.6296 48.4 17.2161 48.9865L29.243 61.0135C30.4161 62.1865 32.1764 62.1865 33.3494 61.0135C33.9359 60.427 34.2296 59.6936 34.2296 58.9603V55.7333L22.4962 44H19.2693Z" fill="#fff"/>
<path d="M53.7422 13.6149L56.6454 10.7109L58.7201 12.7849L55.8161 15.6889L53.7422 13.6149Z" fill="#8E6A65"/>
<path d="M58.1562 18.0009L64.068 12.0898L66.142 14.1638L60.2309 20.0749L58.1562 18.0009Z" fill="#8E6A65"/>
<path d="M62.5703 22.3853L71.3853 13.5703L73.4593 15.645L64.6443 24.46L62.5703 22.3853Z" fill="#8E6A65"/>
<path d="M31.2969 7.33203H48.8969V10.2654H31.2969V7.33203Z" fill="#5DA364"/>
<path d="M16.6328 14.6641H40.0995V17.5974H16.6328V14.6641Z" fill="#5DA364"/>
<path d="M16.6328 22H34.2328V24.9333H16.6328V22Z" fill="#5DA364"/>
<path d="M16.6328 29.332H28.3661V32.2654H16.6328V29.332Z" fill="#5DA364"/>
<path d="M16.6328 36.6641H21.0328V39.5974H16.6328V36.6641Z" fill="#5DA364"/>
<path d="M16.6328 66H57.6995V68.9333H16.6328V66Z" fill="#5DA364"/>
<path d="M28.3672 71.8672H63.5672V74.8005H28.3672V71.8672Z" fill="#5DA364"/>
<path d="M28.3672 77.7305H63.5672V80.6638H28.3672V77.7305Z" fill="#5DA364"/>
<path d="M78.377 69.9603L70.8969 62.4801V24.9333H67.9635V59.5468L50.2167 41.8L56.8167 35.2H59.4572C61.9501 35.2 63.8572 33.2936 63.8572 30.8C63.8572 29.627 63.4167 28.4532 62.5366 27.7199L50.5104 15.6936C48.7501 13.9333 45.9635 13.9333 44.3501 15.6936C43.4699 16.573 43.0302 17.6 43.0302 18.773V21.4135L21.9104 42.5333H19.2699C16.777 42.5333 14.8699 44.4397 14.8699 46.9333C14.8699 48.1064 15.3104 49.2801 16.1905 50.0135L28.2167 62.0397C29.977 63.8 32.7635 63.8 34.377 62.0397C35.2572 61.1603 35.6969 60.1333 35.6969 58.9603V56.3199L43.7635 48.2532L67.9635 72.4532V83.6C67.9635 84.4801 67.377 85.0667 66.4969 85.0667H23.9635V77.7333C23.9635 75.2397 22.0572 73.3333 19.5635 73.3333H12.2302V4.4C12.2302 3.51986 12.8167 2.93333 13.6969 2.93333H66.4969C67.377 2.93333 67.9635 3.51986 67.9635 4.4V10.2667H70.8969V4.4C70.8969 1.90638 68.9905 0 66.4969 0H13.6969C11.2033 0 9.29688 1.90638 9.29688 4.4V75.3865L21.9104 88H66.4969C68.9905 88 70.8969 86.0936 70.8969 83.6V75.3865L71.9238 76.4135C73.6834 78.173 76.6167 78.173 78.377 76.4135C80.1366 74.6532 80.1366 71.7199 78.377 69.9603ZM21.0302 77.7333V83.0135L14.2834 76.2667H19.5635C20.4437 76.2667 21.0302 76.8532 21.0302 77.7333ZM46.4033 17.7468C46.9905 17.1603 47.8699 17.1603 48.4572 17.7468L60.4834 29.773C61.0699 30.3603 61.0699 31.2397 60.4834 31.827C60.1905 32.1199 59.8969 32.2667 59.4572 32.2667H56.8167L45.9635 21.4135V18.773C45.9635 18.4801 46.1104 18.0397 46.4033 17.7468ZM44.4969 24.0532L54.177 33.7333L34.2302 53.6801L24.5501 44L44.4969 24.0532ZM32.3238 59.9865C31.7366 60.5731 30.8572 60.5731 30.2699 59.9865L18.2437 47.9603C17.6572 47.3731 17.6572 46.4936 18.2437 45.9064C18.5366 45.6135 18.8302 45.4667 19.2699 45.4667H21.9104L32.7635 56.3199V58.9603C32.7635 59.2532 32.6167 59.6936 32.3238 59.9865ZM75.1501 74.8C74.7104 74.8 74.2699 74.6532 73.977 74.3603L45.8167 46.2L48.1635 43.8532L76.3238 72.0135C76.9104 72.6 76.9104 73.627 76.3238 74.3603C76.0302 74.6532 75.5905 74.8 75.1501 74.8Z" fill="#146482"/>
<path d="M53.7422 13.6149L56.6454 10.7109L58.7201 12.7849L55.8161 15.6889L53.7422 13.6149Z" fill="#146482"/>
<path d="M58.1562 18.0009L64.068 12.0898L66.142 14.1638L60.2309 20.0749L58.1562 18.0009Z" fill="#146482"/>
<path d="M62.5703 22.3853L71.3853 13.5703L73.4593 15.645L64.6443 24.46L62.5703 22.3853Z" fill="#146482"/>
<path d="M31.2969 7.33203H48.8969V10.2654H31.2969V7.33203Z" fill="#146482"/>
<path d="M16.6328 14.668H40.0995V17.6013H16.6328V14.668Z" fill="#146482"/>
<path d="M16.6328 22H34.2328V24.9333H16.6328V22Z" fill="#146482"/>
<path d="M16.6328 29.332H28.3661V32.2654H16.6328V29.332Z" fill="#146482"/>
<path d="M16.6328 36.668H21.0328V39.6013H16.6328V36.668Z" fill="#146482"/>
<path d="M16.6328 66H57.6995V68.9333H16.6328V66Z" fill="#146482"/>
<path d="M28.3672 71.8672H63.5672V74.8005H28.3672V71.8672Z" fill="#146482"/>
<path d="M28.3672 77.7344H63.5672V80.6677H28.3672V77.7344Z" fill="#146482"/>
  </g>
  <defs>
<clipPath id="clip0_3206_6873">
<rect width="88" height="88" fill="white" transform="translate(0.5)"/>
    </clipPath>
  </defs>
</svg>
