<svg width="89" height="88" viewBox="0 0 89 88" fill="none" xmlns="http://www.w3.org/2000/svg">
<path d="M70.9688 83.2734H16.3125C12.9902 83.2734 10.2969 74.5645 10.2969 71.2422V7.30469C10.2969 3.98234 12.9902 1.28906 16.3125 1.28906H70.9688C74.2911 1.28906 76.9844 3.98234 76.9844 7.30469V77.2578C76.9844 80.5802 74.2911 83.2734 70.9688 83.2734Z" fill="#fff"/>
<path d="M25.5518 56.3253H19.75C18.3262 56.3253 17.1719 55.1709 17.1719 53.7471V47.9453C17.1719 46.5215 18.3262 45.3672 19.75 45.3672H25.5518C26.9756 45.3672 28.1299 46.5215 28.1299 47.9453V53.7471C28.1299 55.1709 26.9756 56.3253 25.5518 56.3253Z" fill="#ADE194"/>
<path d="M25.5518 37.5792H19.75C18.3262 37.5792 17.1719 36.4248 17.1719 35.001V29.1992C17.1719 27.7754 18.3262 26.6211 19.75 26.6211H25.5518C26.9756 26.6211 28.1299 27.7754 28.1299 29.1992V35.001C28.1299 36.4248 26.9756 37.5792 25.5518 37.5792Z" fill="#FFE177"/>
<path d="M25.5518 18.837H19.75C18.3262 18.837 17.1719 17.6827 17.1719 16.2588V10.457C17.1719 9.03322 18.3262 7.87891 19.75 7.87891H25.5518C26.9756 7.87891 28.1299 9.03322 28.1299 10.457V16.2588C28.1299 17.6827 26.9756 18.837 25.5518 18.837Z" fill="#FD8087"/>
<path d="M72.6875 1.28906H65.8125C69.1348 1.28906 71.8281 3.98234 71.8281 7.30469V78.9766C71.8281 82.2989 69.1348 84.9922 65.8125 84.9922H70.9688C74.2911 84.9922 76.9844 82.2989 76.9844 78.9766L78.7031 71.2422V7.30469C78.7031 3.98234 76.0098 1.28906 72.6875 1.28906Z" fill="#DEECF1"/>
<path d="M10.2969 71.2422V80.6953C10.2969 84.0177 12.9902 86.7109 16.3125 86.7109H70.9688C74.2911 86.7109 76.9844 84.0177 76.9844 80.6953L71.8281 71.2422H10.2969Z" fill="#fff"/>
<path d="M71.8281 71.2422V80.6953C71.8281 84.0177 69.1348 86.7109 65.8125 86.7109H72.6875C76.0098 86.7109 78.7031 84.0177 78.7031 80.6953V71.2422H71.8281Z" fill="#C9E8E5"/>
<path d="M44.4974 82.0534C46.196 82.0534 47.5729 80.6764 47.5729 78.9779C47.5729 77.2793 46.196 75.9023 44.4974 75.9023C42.7988 75.9023 41.4219 77.2793 41.4219 78.9779C41.4219 80.6764 42.7988 82.0534 44.4974 82.0534Z" fill="#fff"/>
<path d="M44.4974 74.6133C42.0908 74.6133 40.1328 76.5713 40.1328 78.9779C40.1328 81.3845 42.0908 83.3425 44.4974 83.3425C46.9042 83.3425 48.862 81.3845 48.862 78.9779C48.862 76.5713 46.9042 74.6133 44.4974 74.6133ZM44.4974 80.7643C43.5124 80.7643 42.7109 79.9629 42.7109 78.9779C42.7109 77.9929 43.5124 77.1914 44.4974 77.1914C45.4824 77.1914 46.2839 77.9929 46.2839 78.9779C46.2839 79.9629 45.4824 80.7643 44.4974 80.7643Z" fill="#146482"/>
<path d="M64.4965 65.8688C65.2086 65.8688 65.7856 65.2916 65.7856 64.5797V63.5308C68.0669 62.9809 69.5302 61.0453 69.8511 59.1364C70.266 56.6688 68.9768 54.524 66.5669 53.6722C65.1543 53.1729 63.5899 52.5681 62.6973 51.8678C62.3486 51.5944 62.1979 51.0222 62.3132 50.4103C62.4261 49.8107 62.8331 49.0836 63.6358 48.8418C65.4406 48.2987 66.6176 49.2684 66.6998 49.339L67.0023 49.6166C67.5268 50.098 68.3422 50.063 68.8238 49.5384C69.3051 49.0139 69.2702 48.1985 68.7456 47.7171L68.4381 47.4348C68.3776 47.379 67.396 46.4954 65.7856 46.1956V45.3672C65.7856 44.6553 65.2086 44.0781 64.4965 44.0781C63.7844 44.0781 63.2075 44.6553 63.2075 45.3672V46.2865C63.1035 46.3125 62.9985 46.3412 62.8922 46.3732C61.2955 46.8541 60.1029 48.2181 59.7797 49.9327C59.4836 51.5035 59.992 53.0223 61.1063 53.8963C62.0623 54.646 63.3953 55.2852 65.7077 56.1027C67.4937 56.734 67.3847 58.2571 67.3089 58.7088C67.1159 59.8563 66.151 61.0962 64.4881 61.1072C62.9636 61.1188 62.4459 61.0351 61.2527 60.2543C60.6572 59.8645 59.8583 60.0316 59.4683 60.6275C59.0785 61.2232 59.2456 62.0222 59.8415 62.4119C61.1572 63.2726 62.0781 63.5624 63.2076 63.6506V64.5794C63.2075 65.2916 63.7846 65.8688 64.4965 65.8688Z" fill="#146482"/>
<path d="M19.75 20.126H25.5516C27.6841 20.126 29.4188 18.3913 29.4188 16.2588V10.457C29.4188 8.32458 27.6841 6.58984 25.5516 6.58984H19.75C17.6175 6.58984 15.8828 8.32458 15.8828 10.457V16.2588C15.8828 18.3913 17.6175 20.126 19.75 20.126ZM18.4609 10.457C18.4609 9.74616 19.0391 9.16797 19.75 9.16797H25.5516C26.2625 9.16797 26.8407 9.74616 26.8407 10.457V16.2588C26.8407 16.9697 26.2625 17.5479 25.5516 17.5479H19.75C19.0391 17.5479 18.4609 16.9697 18.4609 16.2588V10.457Z" fill="#146482"/>
<path d="M15.8828 35.0009C15.8828 37.1333 17.6175 38.868 19.75 38.868H25.5516C27.6841 38.868 29.4188 37.1333 29.4188 35.0009V29.1992C29.4188 27.0668 27.6841 25.332 25.5516 25.332H19.75C17.6175 25.332 15.8828 27.0668 15.8828 29.1992V35.0009ZM18.4609 29.199C18.4609 28.4882 19.0391 27.91 19.75 27.91H25.5516C26.2625 27.91 26.8407 28.4882 26.8407 29.199V35.0007C26.8407 35.7116 26.2625 36.2898 25.5516 36.2898H19.75C19.0391 36.2898 18.4609 35.7116 18.4609 35.0007V29.199Z" fill="#146482"/>
<path d="M34.375 20.125H68.6312C69.3433 20.125 69.9203 19.5478 69.9203 18.8359C69.9203 18.124 69.3433 17.5469 68.6312 17.5469H34.375C33.6631 17.5469 33.0859 18.124 33.0859 18.8359C33.0859 19.5478 33.6631 20.125 34.375 20.125Z" fill="#146482"/>
<path d="M34.375 33.3906H68.6312C69.3433 33.3906 69.9203 32.8135 69.9203 32.1016C69.9203 31.3897 69.3433 30.8125 68.6312 30.8125H34.375C33.6631 30.8125 33.0859 31.3897 33.0859 32.1016C33.0859 32.8135 33.6631 33.3906 34.375 33.3906Z" fill="#146482"/>
<path d="M34.375 52.1328H51.5032C52.2153 52.1328 52.7923 51.5557 52.7923 50.8438C52.7923 50.1318 52.2153 49.5547 51.5032 49.5547H34.375C33.6631 49.5547 33.0859 50.1318 33.0859 50.8438C33.0859 51.5557 33.6631 52.1328 34.375 52.1328Z" fill="#146482"/>
<path d="M34.375 57.6133H51.5032C52.2153 57.6133 52.7923 57.0361 52.7923 56.3242C52.7923 55.6123 52.2153 55.0352 51.5032 55.0352H34.375C33.6631 55.0352 33.0859 55.6123 33.0859 56.3242C33.0859 57.0363 33.6631 57.6133 34.375 57.6133Z" fill="#146482"/>
<path d="M17.1719 65.9414H51.5048C52.2168 65.9414 52.7938 65.3642 52.7938 64.6523C52.7938 63.9404 52.2168 63.3633 51.5048 63.3633H17.1719C16.46 63.3633 15.8828 63.9404 15.8828 64.6523C15.8828 65.3642 16.46 65.9414 17.1719 65.9414Z" fill="#146482"/>
<path d="M72.6875 0H16.3125C12.2846 0 9.00781 3.2768 9.00781 7.30469V35.1754C9.00781 35.8873 9.58497 36.4645 10.2969 36.4645C11.0088 36.4645 11.5859 35.8873 11.5859 35.1754V7.30469C11.5859 4.69838 13.7062 2.57812 16.3125 2.57812H72.6875C75.2938 2.57812 77.4141 4.69838 77.4141 7.30469V69.9531H11.5859V40.7933C11.5859 40.0814 11.0088 39.5043 10.2969 39.5043C9.58497 39.5043 9.00781 40.0814 9.00781 40.7933V80.6953C9.00781 84.7232 12.2846 88 16.3125 88H72.6875C76.7154 88 79.9922 84.7232 79.9922 80.6953V7.30469C79.9922 3.2768 76.7154 0 72.6875 0ZM72.6875 85.4219H16.3125C13.7062 85.4219 11.5859 83.3016 11.5859 80.6953V72.5312H77.4141V80.6953C77.4141 83.3016 75.2938 85.4219 72.6875 85.4219Z" fill="#146482"/>
<path d="M34.375 38.8711H68.6312C69.3433 38.8711 69.9203 38.2939 69.9203 37.582C69.9203 36.8701 69.3433 36.293 68.6312 36.293H34.375C33.6631 36.293 33.0859 36.8701 33.0859 37.582C33.0859 38.2939 33.6631 38.8711 34.375 38.8711Z" fill="#146482"/>
<path d="M68.6319 14.6484C69.344 14.6484 69.921 14.0713 69.921 13.3594C69.921 12.6475 69.344 12.0703 68.6319 12.0703H61.5625C60.8504 12.0703 60.2734 12.6475 60.2734 13.3594C60.2734 14.0713 60.8504 14.6484 61.5625 14.6484H68.6319Z" fill="#146482"/>
<path d="M34.375 14.6484H55.9439C56.656 14.6484 57.233 14.0713 57.233 13.3594C57.233 12.6475 56.656 12.0703 55.9439 12.0703H34.375C33.6631 12.0703 33.0859 12.6475 33.0859 13.3594C33.0859 14.0713 33.6631 14.6484 34.375 14.6484Z" fill="#146482"/>
<path d="M15.8828 53.747C15.8828 55.8794 17.6175 57.6141 19.75 57.6141C20.4619 57.6141 21.0391 57.037 21.0391 56.3251C21.0391 55.6132 20.4619 55.036 19.75 55.036C19.0391 55.036 18.4609 54.4578 18.4609 53.747V47.9453C18.4609 47.2344 19.0391 46.6563 19.75 46.6563H25.5516C26.2625 46.6563 26.8407 47.2344 26.8407 47.9453V53.747C26.8407 54.4578 26.2625 55.036 25.5516 55.036C24.8397 55.036 24.2626 55.6132 24.2626 56.3251C24.2626 57.037 24.8397 57.6141 25.5516 57.6141C27.6841 57.6141 29.4188 55.8794 29.4188 53.747V47.9453C29.4188 45.8129 27.6841 44.0781 25.5516 44.0781H19.75C17.6175 44.0781 15.8828 45.8129 15.8828 47.9453V53.747Z" fill="#146482"/>
</svg>
