<svg width="89" height="88" viewBox="0 0 89 88" fill="none" xmlns="http://www.w3.org/2000/svg">
<g clip-path="url(#clip0_3206_6852)">
<path d="M47.1943 9.12401C46.6486 7.84211 45.2771 7.12167 43.9122 7.39882C42.5472 7.67597 41.5654 8.87479 41.5625 10.2677V24.9344C41.5625 23.3144 42.8759 22.001 44.4958 22.001C46.1158 22.001 47.4292 23.3144 47.4292 24.9344V10.2677C47.4277 9.87453 47.3482 9.48567 47.1943 9.12401Z" fill="#fff"/>
<path d="M63.876 23.4958C65.8525 26.9498 65.2653 31.3004 62.4437 34.1062C59.6213 36.9121 55.2679 37.4757 51.8246 35.4798C48.3821 33.4839 46.7071 29.4262 47.7398 25.5834C48.7717 21.7398 52.2551 19.0679 56.2347 19.0665C59.3943 19.0557 62.3148 20.7487 63.876 23.4958ZM59.168 27.8665C59.168 26.2465 57.8546 24.9331 56.2347 24.9331C54.6148 24.9331 53.3013 26.2465 53.3013 27.8665C53.3013 29.4864 54.6148 30.7998 56.2347 30.7998C57.8525 30.7948 59.163 29.4842 59.168 27.8665Z" fill="#fff"/>
<path d="M61.481 16.1323L59.4421 9.8259C59.2523 9.05676 58.8449 8.35923 58.2691 7.81639C57.6725 7.25565 56.9822 6.80376 56.2302 6.4815C52.9746 5.08716 49.1876 6.1936 47.1953 9.12193C47.3493 9.48358 47.4288 9.87245 47.4302 10.2656V27.8656C47.4273 23.8738 50.1115 20.3805 53.9693 19.3549C57.8272 18.3294 61.8921 20.0288 63.8715 23.495L61.481 16.1323Z" fill="#fff"/>
<path d="M40.0996 7.34821C37.9934 5.75049 35.1869 5.41891 32.7663 6.48311C32.0143 6.80537 31.324 7.25726 30.7274 7.818C30.1516 8.36084 29.7441 9.05837 29.5544 9.82751L27.5155 16.1339L25.125 23.4966C27.1044 20.0304 31.1693 18.331 35.0272 19.3565C38.885 20.3821 41.5691 23.8754 41.5663 27.8672V10.2672C41.5677 9.87406 41.6472 9.48519 41.8012 9.12354C41.3393 8.4389 40.7635 7.83877 40.0996 7.34821Z" fill="#fff"/>
<path d="M32.7688 19.0664C36.7434 19.07 40.221 21.7405 41.2508 25.579C42.2814 29.4176 40.6077 33.4702 37.1688 35.4633C33.7306 37.4563 29.3821 36.8949 26.5634 34.0933C23.7439 31.291 23.1553 26.9469 25.1275 23.4958C26.6959 20.7551 29.6113 19.065 32.7688 19.0664ZM35.7021 27.8664C35.7021 26.2465 34.3887 24.9331 32.7688 24.9331C31.1489 24.9331 29.8355 26.2465 29.8355 27.8664C29.8355 29.4863 31.1489 30.7997 32.7688 30.7997C34.3866 30.7947 35.6971 29.4842 35.7021 27.8664Z" fill="#fff"/>
<path d="M81.1693 57.1992V63.0659C81.1693 66.3057 78.5424 68.9326 75.3026 68.9326H13.7026C10.4628 68.9326 7.83594 66.3057 7.83594 63.0659V57.1992H81.1693Z" fill="#fff"/>
<path d="M62.0984 82.1346V85.068C62.0984 85.8779 61.4417 86.5346 60.6318 86.5346H28.3651C27.5551 86.5346 26.8984 85.8779 26.8984 85.068V82.1346C26.8984 81.3247 27.5551 80.668 28.3651 80.668H60.6318C61.4417 80.668 62.0984 81.3247 62.0984 82.1346Z" fill="#fff"/>
<path d="M54.7656 68.9336L56.2323 80.6669H32.7656L34.2323 68.9336H54.7656Z" fill="#fff"/>
<path d="M75.3005 14.668H66.5005V17.6013H75.3005C77.7304 17.6013 79.7005 19.5714 79.7005 22.0013V55.7346H9.30052V22.0013C9.30052 19.5714 11.2706 17.6013 13.7005 17.6013H22.5005V14.668H13.7005C9.65215 14.673 6.3722 17.9529 6.36719 22.0013V63.068C6.3722 67.1163 9.65215 70.3963 13.7005 70.4013H32.5724L31.4724 79.2013H28.3672C26.7473 79.2013 25.4339 80.5147 25.4339 82.1346V85.068C25.4339 86.6879 26.7473 88.0013 28.3672 88.0013H60.6339C62.2538 88.0013 63.5672 86.6879 63.5672 85.068V82.1346C63.5672 80.5147 62.2538 79.2013 60.6339 79.2013H57.5287L56.4287 70.4013H75.3005C79.3489 70.3963 82.6289 67.1163 82.6339 63.068V22.0013C82.6289 17.9529 79.3489 14.673 75.3005 14.668ZM60.6339 85.068H28.3672V82.1346H60.6339V85.068ZM54.5724 79.2013H34.4287L35.5287 70.4013H53.4724L54.5724 79.2013ZM75.3005 67.468H13.7005C11.2706 67.468 9.30052 65.4979 9.30052 63.068V58.668H79.7005V63.068C79.7005 65.4979 77.7304 67.468 75.3005 67.468Z" fill="#146482"/>
<path d="M70.8984 61.6016H73.8318V64.5349H70.8984V61.6016Z" fill="#146482"/>
<path d="M56.2359 23.4648C53.8061 23.4648 51.8359 25.435 51.8359 27.8648C51.8359 30.2947 53.8061 32.2648 56.2359 32.2648C58.6658 32.2648 60.6359 30.2947 60.6359 27.8648C60.6359 25.435 58.6658 23.4648 56.2359 23.4648ZM56.2359 29.3315C55.426 29.3315 54.7693 28.6748 54.7693 27.8648C54.7693 27.0549 55.426 26.3982 56.2359 26.3982C57.0459 26.3982 57.7026 27.0549 57.7026 27.8648C57.7026 28.6748 57.0459 29.3315 56.2359 29.3315Z" fill="#146482"/>
<path d="M32.7672 23.4648C30.3373 23.4648 28.3672 25.435 28.3672 27.8648C28.3672 30.2947 30.3373 32.2648 32.7672 32.2648C35.1971 32.2648 37.1672 30.2947 37.1672 27.8648C37.1672 25.435 35.1971 23.4648 32.7672 23.4648ZM32.7672 29.3315C31.9572 29.3315 31.3005 28.6748 31.3005 27.8648C31.3005 27.0549 31.9572 26.3982 32.7672 26.3982C33.5772 26.3982 34.2339 27.0549 34.2339 27.8648C34.2339 28.6748 33.5772 29.3315 32.7672 29.3315Z" fill="#146482"/>
<path d="M22.5 27.8667C22.5208 33.2936 26.7611 37.7674 32.1787 38.0775C37.5971 38.3883 42.3208 34.4287 42.9617 29.0397C43.9507 29.4322 45.0522 29.4322 46.0412 29.0397C46.5074 33.1633 49.4099 36.6008 53.3967 37.7509C57.3835 38.9018 61.671 37.5389 64.2621 34.2977C66.8531 31.0564 67.2384 26.5747 65.2389 22.9389L60.8589 9.44525C60.5961 8.40755 60.0432 7.46654 59.2648 6.73177C58.7857 6.30065 58.2608 5.92181 57.7 5.60384V4.4C57.7 1.97012 55.7299 0 53.3 0H51.8333C49.4035 0 47.4333 1.97012 47.4333 4.4V6.63939C47.3617 6.70384 47.2987 6.77617 47.2278 6.84206C45.6415 5.54154 43.3585 5.54154 41.7722 6.84206C41.7013 6.77617 41.6383 6.70384 41.5667 6.63939V4.4C41.5667 1.97012 39.5966 0 37.1667 0H35.7C33.2701 0 31.3 1.97012 31.3 4.4V5.60527C30.7386 5.92253 30.2136 6.30065 29.7352 6.73177C28.974 7.4472 28.4297 8.36172 28.164 9.3722L23.764 22.9389C22.9333 24.4478 22.4979 26.1436 22.5 27.8667ZM32.7667 35.2C28.7169 35.2 25.4333 31.9165 25.4333 27.8667C25.4333 23.8169 28.7169 20.5333 32.7667 20.5333C36.8165 20.5333 40.1 23.8169 40.1 27.8667C40.095 31.915 36.815 35.195 32.7667 35.2ZM44.5 26.4C43.6901 26.4 43.0333 25.7433 43.0333 24.9333C43.0333 24.1234 43.6901 23.4667 44.5 23.4667C45.31 23.4667 45.9667 24.1234 45.9667 24.9333C45.9667 25.7433 45.31 26.4 44.5 26.4ZM56.2333 35.2C52.1835 35.2 48.9 31.9165 48.9 27.8667C48.9 23.8169 52.1835 20.5333 56.2333 20.5333C60.2832 20.5333 63.5667 23.8169 63.5667 27.8667C63.5617 31.915 60.2817 35.195 56.2333 35.2ZM60.7666 18.6692C56.7919 16.6905 51.993 17.5098 48.9 20.6959V10.2667C48.8986 9.98236 48.8699 9.69948 48.8148 9.42018C49.8468 8.19629 51.3349 7.4472 52.9326 7.34694C54.5311 7.24668 56.1009 7.80384 57.2775 8.88952C57.6606 9.26908 57.927 9.75033 58.0445 10.2767L60.7666 18.6692ZM50.3667 4.4C50.3667 3.59004 51.0234 2.93333 51.8333 2.93333H53.3C54.11 2.93333 54.7667 3.59004 54.7667 4.4V4.53607C54.2826 4.45013 53.792 4.40501 53.3 4.4C52.3003 4.40358 51.3084 4.57689 50.3667 4.91348V4.4ZM44.5 8.8C45.31 8.8 45.9667 9.45671 45.9667 10.2667V20.8033C45.0221 20.4431 43.9779 20.4431 43.0333 20.8033V10.2667C43.0333 9.45671 43.6901 8.8 44.5 8.8ZM34.2333 4.4C34.2333 3.59004 34.89 2.93333 35.7 2.93333H37.1667C37.9766 2.93333 38.6333 3.59004 38.6333 4.4V4.91348C37.6916 4.57689 36.6998 4.40358 35.7 4.4C35.208 4.40501 34.7175 4.45013 34.2333 4.53607V4.4ZM30.9756 10.2022C31.0959 9.70306 31.3544 9.24831 31.7225 8.89095C32.8992 7.80527 34.469 7.2474 36.0667 7.34766C37.6651 7.44792 39.1525 8.19629 40.1852 9.42018C40.1301 9.69948 40.1014 9.98236 40.1 10.2667V20.6959C37.007 17.5091 32.2067 16.6898 28.232 18.6706L30.9756 10.2022Z" fill="#146482"/>
<path d="M45.9688 44H48.9021V46.9333H45.9688V44Z" fill="#146482"/>
<path d="M51.8359 44H54.7693V46.9333H51.8359V44Z" fill="#146482"/>
<path d="M40.1016 44H43.0349V46.9333H40.1016V44Z" fill="#146482"/>
<path d="M34.2344 44H37.1677V46.9333H34.2344V44Z" fill="#146482"/>
  </g>
  <defs>
<clipPath id="clip0_3206_6852">
<rect width="88" height="88" fill="white" transform="translate(0.5)"/>
    </clipPath>
  </defs>
</svg>
